<svg width="1962" height="908" viewBox="0 0 1962 908" fill="none" xmlns="http://www.w3.org/2000/svg">
<g clip-path="url(#clip0_3_85)">
<path d="M972.766 660C958.366 660 945.566 655.68 934.366 647.04C923.486 638.08 915.006 625.92 908.926 610.56C902.846 595.2 899.806 577.44 899.806 557.28C899.806 536.16 902.206 514.88 907.006 493.44C911.806 472 917.886 452.32 925.246 434.4C932.606 416.48 940.126 402.24 947.806 391.68C955.486 380.8 962.366 375.36 968.446 375.36C972.926 375.36 976.606 376.8 979.486 379.68C982.366 382.56 983.806 386.72 983.806 392.16C983.806 393.44 982.526 397.92 979.966 405.6C977.406 412.96 974.206 422.56 970.366 434.4C966.526 445.92 962.686 458.72 958.846 472.8C955.006 486.88 951.806 501.28 949.246 516C946.686 530.72 945.406 544.64 945.406 557.76C945.406 580.16 947.486 596 951.646 605.28C956.126 614.24 963.166 618.72 972.766 618.72C996.126 618.72 1017.89 612.64 1038.05 600.48C1058.53 588 1077.41 571.68 1094.69 551.52C1112.29 531.04 1128.45 508.48 1143.17 483.84C1131.97 485.44 1121.09 486.72 1110.53 487.68C1099.97 488.32 1089.89 488.8 1080.29 489.12C1071.01 489.44 1064.93 488.32 1062.05 485.76C1059.17 483.2 1057.73 479.2 1057.73 473.76C1057.41 468.96 1059.33 464.64 1063.49 460.8C1067.97 456.96 1072.61 454.88 1077.41 454.56C1091.81 453.28 1106.53 451.68 1121.57 449.76C1136.61 447.84 1151.49 445.6 1166.21 443.04C1173.89 428.32 1181.25 413.44 1188.29 398.4C1195.33 383.36 1201.73 368.96 1207.49 355.2C1214.21 334.4 1221.25 315.04 1228.61 297.12C1235.97 278.88 1243.33 264.16 1250.69 252.96C1258.05 241.44 1264.93 235.68 1271.33 235.68C1282.21 235.68 1287.65 241.12 1287.65 252C1287.65 254.24 1286.21 260.48 1283.33 270.72C1280.45 280.96 1276.45 294.24 1271.33 310.56C1266.53 326.88 1260.93 345.44 1254.53 366.24C1248.13 386.72 1241.57 408.32 1234.85 431.04C1263.65 425.28 1289.89 419.68 1313.57 414.24C1337.57 408.48 1357.25 403.84 1372.61 400.32C1387.97 396.48 1397.09 394.56 1399.97 394.56C1404.13 394.56 1407.49 396.64 1410.05 400.8C1412.61 404.64 1413.89 408.32 1413.89 411.84C1413.89 414.72 1408.61 418.56 1398.05 423.36C1387.81 428.16 1373.57 433.44 1355.33 439.2C1337.41 444.64 1316.93 450.24 1293.89 456C1271.17 461.44 1247.49 466.56 1222.85 471.36C1214.85 498.56 1207.17 525.44 1199.81 552C1192.45 578.56 1186.21 602.88 1181.09 624.96C1178.21 639.04 1171.17 646.08 1159.97 646.08C1154.21 646.08 1149.89 644.64 1147.01 641.76C1144.45 638.88 1143.17 633.92 1143.17 626.88C1143.17 625.92 1143.97 621.12 1145.57 612.48C1147.49 603.52 1149.89 592.48 1152.77 579.36C1155.65 565.92 1158.69 552 1161.89 537.6C1165.09 522.88 1168.13 509.28 1171.01 496.8C1154.05 526.88 1135.33 554.24 1114.85 578.88C1094.37 603.52 1072.13 623.2 1048.13 637.92C1024.45 652.64 999.326 660 972.766 660ZM978.526 328.32C970.846 328.32 964.446 325.92 959.326 321.12C954.526 316.32 952.126 310.4 952.126 303.36C952.126 294.72 955.166 287.52 961.246 281.76C967.646 275.68 975.006 272.64 983.326 272.64C992.606 272.64 999.646 275.36 1004.45 280.8C1009.25 285.92 1011.65 292.64 1011.65 300.96C1011.65 307.68 1008.45 313.92 1002.05 319.68C995.646 325.44 987.806 328.32 978.526 328.32ZM1377.59 606.24C1374.39 617.76 1370.71 624.96 1366.55 627.84C1362.71 631.04 1358.55 632.64 1354.07 632.64C1348.95 632.64 1344.47 630.72 1340.63 626.88C1337.11 623.04 1336.63 615.2 1339.19 603.36C1344.63 578.4 1349.75 554.72 1354.55 532.32C1359.67 509.6 1363.99 489.28 1367.51 471.36C1371.35 453.44 1374.39 438.88 1376.63 427.68C1379.19 416.16 1380.79 409.12 1381.43 406.56C1384.95 390.56 1388.95 373.76 1393.43 356.16C1397.91 338.56 1402.87 321.28 1408.31 304.32C1413.75 287.36 1419.51 272 1425.59 258.24C1431.99 244.48 1438.55 233.6 1445.27 225.6C1448.79 222.08 1451.99 219.68 1454.87 218.4C1457.75 216.8 1460.31 216 1462.55 216C1467.03 216 1470.55 217.92 1473.11 221.76C1475.99 225.6 1477.43 229.92 1477.43 234.72C1477.43 237.28 1476.95 239.84 1475.99 242.4C1469.59 260.32 1462.71 282.4 1455.35 308.64C1447.99 334.56 1440.31 362.88 1432.31 393.6C1444.15 391.04 1456.79 388.32 1470.23 385.44C1483.67 382.24 1496.63 379.04 1509.11 375.84C1521.91 372.64 1532.95 369.76 1542.23 367.2C1547.99 364.32 1552.63 364.48 1556.15 367.68C1559.99 370.88 1562.07 374.24 1562.39 377.76C1562.39 382.24 1561.43 385.76 1559.51 388.32C1557.91 390.88 1555.19 393.12 1551.35 395.04C1547.19 397.28 1540.15 400 1530.23 403.2C1520.31 406.4 1508.95 409.76 1496.15 413.28C1483.67 416.48 1470.87 419.68 1457.75 422.88C1444.95 425.76 1433.27 428.16 1422.71 430.08C1415.35 458.56 1407.83 487.84 1400.15 517.92C1392.79 547.68 1385.27 577.12 1377.59 606.24ZM1612 771.36C1596 771.36 1581.28 770.24 1567.84 768C1554.72 766.08 1541.76 762.88 1528.96 758.4C1516.16 754.24 1502.23 748.8 1487.19 742.08C1482.71 739.84 1478.71 737.12 1475.2 733.92C1471.67 731.04 1469.91 727.68 1469.91 723.84C1469.91 719.04 1472.95 713.92 1479.03 708.48C1484.79 703.36 1490.23 700.8 1495.35 700.8C1500.79 700.8 1507.52 702.72 1515.52 706.56C1523.84 710.4 1533.44 714.88 1544.32 720C1555.2 725.44 1567.2 730.08 1580.32 733.92C1593.76 737.76 1608.16 739.68 1623.52 739.68C1640.16 739.68 1655.84 732.8 1670.56 719.04C1685.28 705.28 1697.28 685.44 1706.56 659.52C1715.84 633.92 1720.48 603.04 1720.48 566.88C1720.48 556 1720.16 544 1719.52 530.88C1719.2 517.44 1718.56 503.36 1717.6 488.64C1709.92 505.28 1701.28 521.76 1691.68 538.08C1682.4 554.4 1672.64 569.12 1662.4 582.24C1652.48 595.36 1642.08 605.92 1631.2 613.92C1620.64 621.6 1609.92 625.44 1599.04 625.44C1585.28 625.44 1575.36 621.92 1569.28 614.88C1563.2 607.84 1560.16 596.96 1560.16 582.24C1560.16 566.88 1561.28 550.24 1563.52 532.32C1565.76 514.4 1568.64 496.32 1572.16 478.08C1576 459.52 1580.48 441.92 1585.6 425.28C1590.72 408.64 1596.16 394.24 1601.92 382.08C1605.12 375.68 1609.92 372.48 1616.32 372.48C1620.8 372.48 1625.12 374.88 1629.28 379.68C1633.76 384.16 1636 390.08 1636 397.44C1636 403.2 1634.72 411.36 1632.16 421.92C1629.6 432.48 1626.4 444.48 1622.56 457.92C1618.72 471.36 1614.88 485.44 1611.04 500.16C1607.2 514.56 1604 528.8 1601.44 542.88C1598.88 556.64 1597.6 569.28 1597.6 580.8C1597.6 585.6 1600.8 588 1607.2 588C1610.72 588 1615.68 584.8 1622.08 578.4C1628.8 571.68 1636.16 563.04 1644.16 552.48C1652.48 541.6 1660.8 529.76 1669.12 516.96C1677.76 503.84 1686.08 490.88 1694.08 478.08C1702.08 464.96 1708.96 452.96 1714.72 442.08C1714.4 439.52 1714.24 437.12 1714.24 434.88C1714.24 432.64 1714.24 430.56 1714.24 428.64C1714.24 412.96 1715.84 403.2 1719.04 399.36C1722.56 395.2 1727.04 393.12 1732.48 393.12C1741.76 393.12 1748.32 395.2 1752.16 399.36C1756 403.52 1757.92 410.72 1757.92 420.96C1757.92 424.8 1757.44 428.96 1756.48 433.44C1755.52 437.6 1753.92 443.68 1751.68 451.68C1754.24 476.96 1756.32 499.68 1757.92 519.84C1759.84 540 1760.8 560.32 1760.8 580.8C1760.8 619.52 1754.56 653.12 1742.08 681.6C1729.92 710.08 1712.64 732.16 1690.24 747.84C1668.16 763.52 1642.08 771.36 1612 771.36Z" fill="black"/>
<mask id="mask0_3_85" style="mask-type:alpha" maskUnits="userSpaceOnUse" x="32" y="-56" width="860" height="899">
<path d="M514.607 60.1331C513.308 51.8625 512.116 44.5275 511.06 38.1932C517.107 39.7534 525.644 40.7471 540.531 38.8194C572.573 31.6876 597.116 26.1167 600.038 21.7883C601.137 20.1596 600.608 18.6173 598.554 16.2819C593.488 10.5228 574.132 -7.29108 546.462 -25.9162C533.192 -34.8485 526.934 -38.2474 501.147 -41.9864C478.467 -45.2747 437.363 -50.6257 404.041 -53.02C370.718 -55.4142 345.928 -54.8682 326.833 -53.2498C307.739 -51.6314 294.736 -49.0198 282.381 -45.4561C270.026 -41.8925 258.664 -37.5097 247.946 -32.0992C237.228 -26.6887 227.45 -20.4401 217.936 -12.7671C208.423 -5.09407 199.446 3.73569 178.767 31.0994C158.089 58.4631 126.661 103.011 104.218 141.48C81.7745 179.949 68.7113 211.386 59.8648 236.46C51.0184 261.534 46.5247 279.695 42.856 299.181C39.1873 318.668 36.4271 338.868 34.7218 358.263C33.0165 377.658 32.3851 395.7 33.4322 416.975C34.4792 438.249 37.1246 462.035 39.5453 477.7C41.966 493.364 43.7875 500.813 46.462 506.851C51.3478 517.882 56.4211 526.772 71.9755 540.068C84.1513 550.476 104.757 567.626 116.253 576.298C129.305 586.142 137.341 589.403 148.145 591.505C156.716 593.173 171.748 596.396 200.131 611.94C220.06 622.854 249.905 640.766 265.465 650.394C281.025 660.021 282.262 661.324 283.063 662.681C283.863 664.039 284.55 665.622 283.727 666.545C281.937 668.552 260.233 669.263 250.514 680.233C249.208 681.706 247.896 683.516 248.78 684.713C250.764 687.399 256.997 690.599 285.66 714.748C310.741 735.879 355.494 774.526 379.725 796.294C403.956 818.062 407.102 823.277 410.171 825.792C418.4 832.537 428.102 840.407 460.575 841.324C475.918 841.758 498.315 840.112 530.369 830.739C547.968 825.594 567.725 818.309 599.821 800.712C631.916 783.115 675.044 756.027 700.557 738.744C726.069 721.461 733.736 714.204 747.171 698.562C760.606 682.921 779.246 659.601 796.12 635.707C812.994 611.813 827.658 588.064 836.777 571.875C845.897 555.685 849.367 547.308 857.256 520.679C865.145 494.05 877.09 450.489 883.341 423.839C889.593 397.189 890.426 387.731 890.107 378.992C889.503 362.448 888.623 347.192 884.125 333.828C879.675 320.611 875.484 307.085 866.604 297.89C850.085 280.786 836.758 268.408 827.105 267.71C823.472 267.447 819.748 267.826 815.858 269.522C811.331 271.494 792.426 286.283 763.361 302.66C748.114 311.251 741.735 314.08 737.905 314.309C729.202 314.828 715.687 317.804 706.2 314.955C687.94 309.471 673.146 299.442 648.528 287.303C630.64 278.483 597.663 262.311 572.772 253.042C532.861 238.181 514.918 233.027 513.391 227.056C510.127 214.291 507.599 196.589 509.507 168.501C510.789 149.614 513.36 121.92 514.731 103.017L514.733 103C516.103 84.1082 516.82 74.2195 514.607 60.1331Z" fill="#D9D9D9"/>
<path d="M506.036 9.91418C506.126 9.98494 509.559 27.9942 514.607 60.1331C516.821 74.2235 516.102 84.1138 514.731 103.017C513.36 121.92 510.789 149.614 509.507 168.501C507.599 196.59 510.127 214.291 513.391 227.056C514.918 233.027 532.861 238.181 572.772 253.042C597.663 262.311 630.64 278.483 648.528 287.303C673.146 299.442 687.94 309.471 706.2 314.955C715.687 317.804 729.202 314.828 737.905 314.309C741.735 314.08 748.114 311.251 763.361 302.66C792.426 286.283 811.331 271.494 815.858 269.522C819.748 267.826 823.472 267.447 827.105 267.71C836.758 268.408 850.085 280.786 866.604 297.89C875.484 307.085 879.675 320.611 884.125 333.828C888.623 347.192 889.503 362.448 890.107 378.992C890.426 387.731 889.593 397.189 883.341 423.839C877.09 450.489 865.145 494.05 857.256 520.679C849.367 547.308 845.897 555.685 836.777 571.875C827.658 588.064 812.994 611.813 796.12 635.707C779.246 659.601 760.606 682.921 747.171 698.562C733.736 714.204 726.07 721.461 700.557 738.744C675.044 756.027 631.916 783.115 599.821 800.712C567.725 818.309 547.968 825.594 530.369 830.739C498.315 840.112 475.918 841.758 460.575 841.324C428.102 840.407 418.4 832.537 410.171 825.792C407.102 823.277 403.956 818.062 379.725 796.294C355.494 774.526 310.741 735.879 285.66 714.748C256.997 690.599 250.765 687.399 248.78 684.713C247.896 683.516 249.208 681.706 250.514 680.233C260.233 669.263 281.937 668.552 283.727 666.545C284.55 665.622 283.863 664.039 283.063 662.681C282.262 661.324 281.025 660.021 265.465 650.394C249.905 640.766 220.06 622.854 200.131 611.94C171.748 596.396 156.716 593.173 148.145 591.505C137.341 589.403 129.305 586.142 116.253 576.298C104.757 567.626 84.1513 550.476 71.9755 540.068C56.4211 526.772 51.3479 517.882 46.462 506.851C43.7875 500.813 41.966 493.364 39.5453 477.7C37.1246 462.035 34.4792 438.249 33.4322 416.975C32.3851 395.7 33.0165 377.658 34.7218 358.263C36.4271 338.868 39.1873 318.668 42.856 299.181C46.5247 279.695 51.0184 261.534 59.8648 236.46C68.7113 211.386 81.7745 179.949 104.218 141.48C126.661 103.011 158.089 58.4631 178.767 31.0994C199.446 3.73571 208.423 -5.09406 217.936 -12.7671C227.45 -20.4401 237.228 -26.6887 247.946 -32.0992C258.664 -37.5096 270.026 -41.8925 282.381 -45.4561C294.735 -49.0198 307.739 -51.6314 326.833 -53.2498C345.928 -54.8682 370.718 -55.4142 404.041 -53.02C437.363 -50.6258 478.467 -45.2747 501.147 -41.9864C526.934 -38.2474 533.192 -34.8485 546.462 -25.9162C574.132 -7.29109 593.488 10.5228 598.554 16.2819C600.608 18.6173 601.137 20.1596 600.038 21.7883C597.116 26.1167 572.573 31.6876 540.531 38.8194C522.768 41.1194 514.045 39.2605 507.807 37.2427C505.052 36.3829 503.131 35.8562 501.151 35.3136" stroke="black" stroke-width="1.74543" stroke-linecap="round"/>
</mask>
<g mask="url(#mask0_3_85)">
<g filter="url(#filter0_d_3_85)">
<path d="M777.237 303.068V611.819L506.734 766.355L236.232 611.819V303.068L506.734 148.532L777.237 303.068Z" stroke="black" stroke-width="34.9085" shape-rendering="crispEdges"/>
</g>
</g>
<circle cx="506.872" cy="154.872" r="48.8719" fill="black"/>
<circle cx="236.872" cy="307.872" r="48.8719" fill="black"/>
<circle cx="236.872" cy="607.872" r="48.8719" fill="black"/>
<circle cx="506.735" cy="752.42" r="48.8719" fill="black"/>
<circle cx="777.421" cy="607.872" r="48.8719" fill="black"/>
<circle cx="768.872" cy="307.872" r="48.8719" fill="black"/>
<circle cx="506.735" cy="457.444" r="48.8719" fill="black"/>
<line x1="505.011" y1="458.038" x2="768.011" y2="300.038" stroke="black" stroke-width="34.9085"/>
</g>
<defs>
<filter id="filter0_d_3_85" x="215.288" y="128.431" width="582.895" height="665.007" filterUnits="userSpaceOnUse" color-interpolation-filters="sRGB">
<feFlood flood-opacity="0" result="BackgroundImageFix"/>
<feColorMatrix in="SourceAlpha" type="matrix" values="0 0 0 0 0 0 0 0 0 0 0 0 0 0 0 0 0 0 127 0" result="hardAlpha"/>
<feOffset dy="3.49085"/>
<feGaussianBlur stdDeviation="1.74543"/>
<feComposite in2="hardAlpha" operator="out"/>
<feColorMatrix type="matrix" values="0 0 0 0 0 0 0 0 0 0 0 0 0 0 0 0 0 0 0.25 0"/>
<feBlend mode="normal" in2="BackgroundImageFix" result="effect1_dropShadow_3_85"/>
<feBlend mode="normal" in="SourceGraphic" in2="effect1_dropShadow_3_85" result="shape"/>
</filter>
<clipPath id="clip0_3_85">
<rect width="1962" height="908" fill="white"/>
</clipPath>
</defs>
</svg>
