<svg width="764" height="764" viewBox="0 0 764 764" fill="none" xmlns="http://www.w3.org/2000/svg">
<g clip-path="url(#clip0_3_118)">
<mask id="mask0_3_118" style="mask-type:alpha" maskUnits="userSpaceOnUse" x="-89" y="-126" width="860" height="899">
<path d="M393.607 -9.86688C392.308 -18.1375 391.116 -25.4725 390.06 -31.8068C396.107 -30.2466 404.644 -29.2529 419.531 -31.1806C451.573 -38.3124 476.116 -43.8833 479.038 -48.2117C480.137 -49.8404 479.608 -51.3827 477.554 -53.7181C472.488 -59.4772 453.132 -77.2911 425.462 -95.9162C412.192 -104.848 405.934 -108.247 380.147 -111.986C357.467 -115.275 316.363 -120.626 283.041 -123.02C249.718 -125.414 224.928 -124.868 205.833 -123.25C186.739 -121.631 173.736 -119.02 161.381 -115.456C149.026 -111.892 137.664 -107.51 126.946 -102.099C116.228 -96.6887 106.45 -90.4401 96.9361 -82.7671C87.4226 -75.0941 78.4459 -66.2643 57.7674 -38.9006C37.089 -11.5369 5.66123 33.0108 -16.7821 71.4798C-39.2255 109.949 -52.2887 141.386 -61.1352 166.46C-69.9816 191.534 -74.4753 209.695 -78.144 229.181C-81.8127 248.668 -84.5729 268.868 -86.2782 288.263C-87.9835 307.658 -88.6149 325.7 -87.5678 346.975C-86.5208 368.249 -83.8754 392.035 -81.4547 407.7C-79.034 423.364 -77.2125 430.813 -74.538 436.851C-69.6522 447.882 -64.5789 456.772 -49.0245 470.068C-36.8487 480.476 -16.2431 497.626 -4.74692 506.298C8.30452 516.142 16.3414 519.403 27.1448 521.505C35.7156 523.173 50.7477 526.396 79.131 541.94C99.0598 552.854 128.905 570.766 144.465 580.394C160.025 590.021 161.262 591.324 162.063 592.681C162.863 594.039 163.55 595.622 162.727 596.545C160.937 598.552 139.233 599.263 129.514 610.233C128.208 611.706 126.896 613.516 127.78 614.713C129.764 617.399 135.997 620.599 164.66 644.748C189.741 665.879 234.494 704.526 258.725 726.294C282.956 748.062 286.102 753.277 289.171 755.792C297.4 762.537 307.102 770.407 339.575 771.324C354.918 771.758 377.315 770.112 409.369 760.739C426.968 755.594 446.725 748.309 478.821 730.712C510.916 713.115 554.044 686.027 579.557 668.744C605.069 651.461 612.736 644.204 626.171 628.562C639.606 612.921 658.246 589.601 675.12 565.707C691.994 541.813 706.658 518.064 715.777 501.875C724.897 485.685 728.367 477.308 736.256 450.679C744.145 424.05 756.09 380.489 762.341 353.839C768.593 327.189 769.426 317.731 769.107 308.992C768.503 292.448 767.623 277.192 763.125 263.828C758.675 250.611 754.484 237.085 745.604 227.89C729.085 210.786 715.758 198.408 706.105 197.71C702.472 197.447 698.748 197.826 694.858 199.522C690.331 201.494 671.426 216.283 642.361 232.66C627.114 241.251 620.735 244.08 616.905 244.309C608.202 244.828 594.687 247.804 585.2 244.955C566.94 239.471 552.146 229.442 527.528 217.303C509.64 208.483 476.663 192.311 451.772 183.042C411.861 168.181 393.918 163.027 392.391 157.056C389.127 144.291 386.599 126.589 388.507 98.5006C389.789 79.6135 392.36 51.9197 393.731 33.0168L393.733 33.0004C395.103 14.1082 395.82 4.21947 393.607 -9.86688Z" fill="#D9D9D9"/>
<path d="M385.036 -60.0858C385.126 -60.0151 388.559 -42.0058 393.607 -9.86688C395.821 4.2235 395.102 14.1138 393.731 33.0168C392.36 51.9197 389.789 79.6136 388.507 98.5006C386.599 126.59 389.127 144.291 392.391 157.056C393.918 163.027 411.861 168.181 451.772 183.042C476.663 192.311 509.64 208.483 527.528 217.303C552.146 229.442 566.94 239.471 585.2 244.955C594.687 247.804 608.202 244.828 616.905 244.309C620.735 244.08 627.114 241.251 642.361 232.66C671.426 216.283 690.331 201.494 694.858 199.522C698.748 197.826 702.472 197.447 706.105 197.71C715.758 198.408 729.085 210.786 745.604 227.89C754.484 237.085 758.675 250.611 763.125 263.828C767.623 277.192 768.503 292.448 769.107 308.992C769.426 317.731 768.593 327.189 762.341 353.839C756.09 380.489 744.145 424.05 736.256 450.679C728.367 477.308 724.897 485.685 715.777 501.875C706.658 518.064 691.994 541.813 675.12 565.707C658.246 589.601 639.606 612.921 626.171 628.562C612.736 644.204 605.07 651.461 579.557 668.744C554.044 686.027 510.916 713.115 478.821 730.712C446.725 748.309 426.968 755.594 409.369 760.739C377.315 770.112 354.918 771.758 339.575 771.324C307.102 770.407 297.4 762.537 289.171 755.792C286.102 753.277 282.956 748.062 258.725 726.294C234.494 704.526 189.741 665.879 164.66 644.748C135.997 620.599 129.765 617.399 127.78 614.713C126.896 613.516 128.208 611.706 129.514 610.233C139.233 599.263 160.937 598.552 162.727 596.545C163.55 595.622 162.863 594.039 162.063 592.681C161.262 591.324 160.025 590.021 144.465 580.394C128.905 570.766 99.0598 552.854 79.131 541.94C50.7477 526.396 35.7156 523.173 27.1448 521.505C16.3414 519.403 8.30452 516.142 -4.74693 506.298C-16.2431 497.626 -36.8487 480.476 -49.0245 470.068C-64.5789 456.772 -69.6521 447.882 -74.538 436.851C-77.2125 430.813 -79.034 423.364 -81.4547 407.7C-83.8754 392.035 -86.5208 368.249 -87.5678 346.975C-88.6149 325.7 -87.9835 307.658 -86.2782 288.263C-84.5729 268.868 -81.8127 248.668 -78.144 229.181C-74.4753 209.695 -69.9816 191.534 -61.1352 166.46C-52.2887 141.386 -39.2255 109.949 -16.7822 71.4798C5.66124 33.0108 37.089 -11.5369 57.7674 -38.9006C78.4459 -66.2643 87.4226 -75.0941 96.9361 -82.7671C106.45 -90.4401 116.228 -96.6887 126.946 -102.099C137.664 -107.51 149.026 -111.892 161.381 -115.456C173.735 -119.02 186.739 -121.631 205.833 -123.25C224.928 -124.868 249.718 -125.414 283.041 -123.02C316.363 -120.626 357.467 -115.275 380.147 -111.986C405.934 -108.247 412.192 -104.848 425.462 -95.9162C453.132 -77.2911 472.488 -59.4772 477.554 -53.7181C479.608 -51.3827 480.137 -49.8404 479.038 -48.2117C476.116 -43.8833 451.573 -38.3124 419.531 -31.1806C401.768 -28.8806 393.045 -30.7395 386.807 -32.7573C384.052 -33.6171 382.131 -34.1438 380.151 -34.6864" stroke="black" stroke-width="1.74543" stroke-linecap="round"/>
</mask>
<g mask="url(#mask0_3_118)">
<g filter="url(#filter0_d_3_118)">
<path d="M648.691 237.447V537.44L385.734 687.665L122.778 537.44V237.447L385.734 87.2222L648.691 237.447Z" stroke="black" stroke-width="50" shape-rendering="crispEdges"/>
</g>
</g>
<circle cx="385" cy="85" r="57" fill="black"/>
<circle cx="125" cy="235" r="58" fill="black"/>
<circle cx="125" cy="542" r="58" fill="black"/>
<circle cx="385.5" cy="682.5" r="57.5" fill="black"/>
<ellipse cx="645.5" cy="542" rx="57.5" ry="58" fill="black"/>
<circle cx="642" cy="236" r="57" fill="black"/>
<circle cx="385.5" cy="387.5" r="57.5" fill="black"/>
<line x1="380.126" y1="381.57" x2="643.126" y2="223.57" stroke="black" stroke-width="50"/>
</g>
<defs>
<filter id="filter0_d_3_118" x="94.2877" y="58.4312" width="582.895" height="665.007" filterUnits="userSpaceOnUse" color-interpolation-filters="sRGB">
<feFlood flood-opacity="0" result="BackgroundImageFix"/>
<feColorMatrix in="SourceAlpha" type="matrix" values="0 0 0 0 0 0 0 0 0 0 0 0 0 0 0 0 0 0 127 0" result="hardAlpha"/>
<feOffset dy="3.49085"/>
<feGaussianBlur stdDeviation="1.74543"/>
<feComposite in2="hardAlpha" operator="out"/>
<feColorMatrix type="matrix" values="0 0 0 0 0 0 0 0 0 0 0 0 0 0 0 0 0 0 0.25 0"/>
<feBlend mode="normal" in2="BackgroundImageFix" result="effect1_dropShadow_3_118"/>
<feBlend mode="normal" in="SourceGraphic" in2="effect1_dropShadow_3_118" result="shape"/>
</filter>
<clipPath id="clip0_3_118">
<rect width="764" height="764" fill="white"/>
</clipPath>
</defs>
</svg>
